<svg xmlns="http://www.w3.org/2000/svg" width="256" height="256" viewBox="0 0 256 256" fill="none">
  <defs>
    <linearGradient id="bg" x1="36" y1="28" x2="220" y2="232" gradientUnits="userSpaceOnUse">
      <stop stop-color="#FFB86B"/>
      <stop offset="0.55" stop-color="#FF5F87"/>
      <stop offset="1" stop-color="#22D3EE"/>
    </linearGradient>
    <linearGradient id="drop" x1="120" y1="92" x2="160" y2="176" gradientUnits="userSpaceOnUse">
      <stop stop-color="#FFFFFF" stop-opacity="0.95"/>
      <stop offset="1" stop-color="#E8FBFF" stop-opacity="0.85"/>
    </linearGradient>
    <filter id="soft" x="-20%" y="-20%" width="140%" height="140%">
      <feGaussianBlur stdDeviation="3" result="b"/>
      <feColorMatrix in="b" type="matrix" values="1 0 0 0 0  0 1 0 0 0  0 0 1 0 0  0 0 0 0.22 0"/>
      <feMerge>
        <feMergeNode/>
        <feMergeNode in="SourceGraphic"/>
      </feMerge>
    </filter>
  </defs>

  <!-- Rounded square background -->
  <rect x="18" y="18" width="220" height="220" rx="52" fill="url(#bg)"/>

  <!-- Subtle inner border -->
  <rect x="18.75" y="18.75" width="218.5" height="218.5" rx="51.25" stroke="rgba(255,255,255,0.35)" stroke-width="1.5"/>

  <!-- Steam lines -->
  <path d="M92 92c0-14 10-24 24-30" stroke="rgba(255,255,255,0.92)" stroke-width="10" stroke-linecap="round"/>
  <path d="M128 78c-6 8-8 16-8 24 0 10 4 18 10 26" stroke="rgba(255,255,255,0.78)" stroke-width="10" stroke-linecap="round"/>
  <path d="M166 92c0-14-10-24-24-30" stroke="rgba(255,255,255,0.62)" stroke-width="10" stroke-linecap="round"/>

  <!-- Droplet (hot water) -->
  <path filter="url(#soft)" d="M128 92c-20 26-36 48-36 70 0 22 16 38 36 38s36-16 36-38c0-22-16-44-36-70Z" fill="url(#drop)"/>

  <!-- Highlight -->
  <path d="M112 158c0-12 8-24 16-36" stroke="rgba(255,255,255,0.75)" stroke-width="8" stroke-linecap="round"/>
</svg>
